#!OML:ASF F:\VICON\USERDATA\INSTALL\rory3\rory3.ASF
:FULLY-SPECIFIED
:DEGREES
64
root 1.1016828523335527 16.842951202370475 5.625510173556888 -8.640405286789141 -0.42566814199481096 2.2501836887438262
lfemur -33.07220726123913 8.251635312745629 -18.690331023720123
ltibia 67.39508111695224
lfoot -16.61377836013893 6.797478908877763
ltoes -23.070136833933464
rfemur -27.20270503960804 -3.4503153191848033 16.923188474356536
rtibia 62.289785757969725
rfoot -17.89093156635551 -1.976824907341714
rtoes -4.4238439275864945
lowerback 4.858381389585538 0.04287616275059586 0.5396710165407805
upperback 2.117663446722086 0.11703164608619737 2.0196458137780104
thorax -3.288147639498803 0.03860605173853532 2.1205497398499653
lowerneck -11.311167350711527 -0.008041654675153831 -3.0846933625557638
upperneck 17.880412170118234 0.6197223963074314 0.6764972244431419
head 7.36170964606891 0.14691908707653545 0.6915458651242117
lclavicle 1.8729654653974833e-16 -2.353207279501302e-15
lhumerus -17.63685294865958 -0.6705921303697469 83.52602438106747
lradius 27.37203280054691
lwrist 17.169704639847748
lhand -27.275356285519322 -11.481774607209811
lfingers 7.12502
lthumb -0.12902562481998148 18.561578612018362
rclavicle 1.879644761855817e-16 -2.3520180802470076e-15
rhumerus -25.666333019078163 -12.428232534001388 -74.09038616167855
rradius 25.909982882497044
rwrist 38.89844069871282
rhand -23.154746251017652 -25.70822301170127
rfingers 7.12502
rthumb 2.4639120159561845 -55.493086980507734
65
root 1.1183691007251801 16.92356564434352 5.925876300361855 -5.299836173387693 -0.7774002745669812 1.660847988514915
lfemur -33.889348243248456 7.072045894507408 -18.378211278708953
ltibia 66.81056238389358
lfoot -17.0739670111262 7.937765391130888
ltoes -22.2926441122324
rfemur -26.530948635574497 -2.8982029385876396 17.566227649479337
rtibia 59.821175482920225
rfoot -19.25787430031271 -2.7686048179490093
rtoes -4.890880939424726
lowerback 3.554510794946317 -0.08987802545723955 0.7154937568941215
upperback 1.8688962175084636 -0.06201968877024011 2.267407581427913
thorax -2.4706458227781187 -0.03721401645541467 2.104019772388212
lowerneck -11.305543135683454 -0.2401762199298083 -2.7901787858278193
upperneck 17.719786028754605 0.05175659077791783 0.9420144653550979
head 7.490007948393818 -0.03585298458954411 0.6822627847489109
lclavicle 1.8671660383677958e-16 -2.3540545900417544e-15
lhumerus -18.498525439134387 1.8613918308735529 83.18278727316441
lradius 25.634248172327887
lwrist 15.557898838947022
lhand -27.781745840189014 -11.486865681531166
lfingers 7.12502
lthumb -0.8593397364968038 18.513382568128538
rclavicle 1.8758363496494085e-16 -2.352625036303614e-15
rhumerus -22.42245285622941 -13.612220660697407 -75.42215469667613
rradius 26.322085823249832
rwrist 39.113148627890055
rhand -23.59641789320706 -26.203606047282587
rfingers 7.12502
rthumb 2.487537713728625 -55.82274030686139
66
root 1.095200767396495 17.339808898148497 6.1412871958123 -3.8910651271245857 -0.624193457788992 1.0119961809696585
lfemur -30.96936090589262 6.4867683727515395 -17.865283679168183
ltibia 61.88127482865999
lfoot -16.46462061067953 7.604880211346873
ltoes -20.37619077371941
rfemur -21.6999306101804 -2.125445121791352 17.9704338942181
rtibia 51.6138871726415
rfoot -18.68904301716104 -3.167666468599398
rtoes -3.2572242320501186
lowerback 3.9314538222283346 -0.2148419972939336 0.8241286975959199
upperback 1.9650337664763429 -0.2933626184610865 2.4644181519049453
thorax -2.034997454097118 -0.18407708987167987 2.139837919555823
lowerneck -11.176273071621276 -0.5321187966320308 -2.586921404810681
upperneck 17.256346251656552 -0.6051471792579562 1.35313719656858
head 7.464416914418239 -0.2820950322222531 0.7052247745289624
lclavicle 1.8693503812718023e-16 -2.3537141465419385e-15
lhumerus -20.41140032879745 3.7972888689316693 82.73640334070294
lradius 24.348575120318394
lwrist 16.37176250292254
lhand -28.290292618206045 -11.903681613608054
lfingers 7.12502
lthumb -1.6305536856158231 18.05763775218672
rclavicle 1.8775430874464544e-16 -2.3523598009922847e-15
rhumerus -21.094180706821888 -13.62933923593354 -77.14741919754337
rradius 28.0283978431315
rwrist 36.74705240126303
rhand -24.21821381986871 -26.503470172634433
rfingers 7.12502
rthumb 2.0415177969404175 -56.09397499439674
67
root 1.0677432211511078 17.881474651770485 6.393166744419079 -0.854552813356575 0.1849114793697244 1.0106821082861253
lfemur -27.588258838465023 5.921775604241751 -17.887721046687215
ltibia 54.81819782964233
lfoot -14.812952785901738 6.495292123809705
ltoes -17.648897616454526
rfemur -17.680852668878423 -1.7717688486371703 17.856694077687038
rtibia 42.23135769850741
rfoot -16.892369756798992 -2.500001248530826
rtoes -0.34800281646902853
lowerback 2.7438524030242117 -0.4556041538381634 0.717568147809531
upperback 1.821600061997902 -0.7182641608067983 2.4857917560545246
thorax -1.4257076444866152 -0.4168972811329771 2.219339014714665
lowerneck -10.95941697704241 -0.9443306349737403 -2.5355206590320196
upperneck 16.821156256217343 -1.3090429448247591 1.6818831035233814
head 7.482727928017918 -0.5718244268266861 0.7191222683782824
lclavicle 1.8746059612961897e-16 -2.3528684926015735e-15
lhumerus -23.011096371279823 3.617993524686542 82.40467123030646
lradius 22.60962110545557
lwrist 15.248247564902162
lhand -28.137134249852817 -11.675169756718873
lfingers 7.12502
lthumb -1.6815179999043668 18.078105387806673
rclavicle 1.8715872573169302e-16 -2.35330886305715e-15
rhumerus -21.507269055819304 -13.009197871721561 -78.12062620401056
rradius 29.499239519290608
rwrist 35.23948779904078
rhand -24.124030344879685 -26.564438406261235
rfingers 7.12502
rthumb 2.3158818315193033 -56.10429669995613
68
root 1.040156652391626 18.354848790782512 6.688271644724378 2.2169057018721627 1.9257785631122397 0.27448052369246256
lfemur -24.273315057021904 5.2195089299264374 -17.41100938305059
ltibia 47.764318470849105
lfoot -12.808732958445528 5.099227345764486
ltoes -15.01439598342799
rfemur -14.215881128536346 -2.0144824122833045 18.403906683185205
rtibia 34.36370513762673
rfoot -14.409093037040595 -1.4304552112723157
rtoes 3.098655898909988
lowerback 1.2059046731466139 -0.7664688559327566 0.8694923636074193
upperback 1.5904925625314799 -1.189854629399911 2.684462801283911
thorax -0.7129635604930045 -0.6402654874643467 2.1751615890389404
lowerneck -10.85913432013027 -1.580338298967619 -2.628150833972933
upperneck 16.25177070737968 -2.2323132842705364 1.9981534704805917
head 7.320633678293783 -1.0068274323530801 0.7229980675269269
lclavicle 1.8646454841091418e-16 -2.354452378773622e-15
lhumerus -26.28364682983664 2.2072886164314487 82.45302358013036
lradius 21.669447793864332
lwrist 14.686768912662071
lhand -27.730454091034655 -11.13687185568822
lfingers 7.12502
lthumb -1.284120828818181 18.315164417131687
rclavicle 1.8664991042135963e-16 -2.3541215568361402e-15
rhumerus -22.977535066401575 -12.581783252335788 -78.23878317013599
rradius 30.530465719277906
rwrist 34.13016335089839
rhand -24.303816556782273 -26.67077344781841
rfingers 7.12502
rthumb 2.35655851126893 -56.18703835957205
69
root 1.0069528929708413 18.713201740555252 7.082810243916567 4.797534428513628 3.529509718744143 -0.2244603542661845
lfemur -20.81563245978536 4.771184606990699 -17.09880262542154
ltibia 41.504883450943126
lfoot -10.971315238905069 4.247048083985202
ltoes -12.815963002331062
rfemur -12.100065899779935 -2.3603433130135967 18.75198575541099
rtibia 29.15782785593718
rfoot -12.323633197953104 -1.452233806924737
rtoes 6.036045514972736
lowerback 0.5044158571203965 -0.8483920341441328 0.9230323619772337
upperback 1.3375683322654082 -1.29739332712328 2.7991622269060636
thorax -0.4184058457665912 -0.687525795542486 2.133089432136962
lowerneck -10.76106728264846 -2.4528682644080173 -2.7189581190453076
upperneck 15.80120855685066 -3.5045805558030603 2.5003800717962683
head 7.157536101825843 -1.6032783133501147 0.7775290675710881
lclavicle 1.8677069022271306e-16 -2.3539065817576017e-15
lhumerus -29.498457819370007 1.3058388404996992 81.9756302841975
lradius 20.937303571796782
lwrist 14.89296857125342
lhand -27.38605609466998 -10.60901908651737
lfingers 7.12502
lthumb -0.7489454453429012 18.565655579730024
rclavicle 1.8659378759176264e-16 -2.354209305629698e-15
rhumerus -24.53317274596453 -12.538532885987554 -77.696339947067
rradius 30.833476645145716
rwrist 34.01880088873905
rhand -24.273253895287812 -26.73639780657212
rfingers 7.12502
rthumb 2.437633490024118 -56.22620192731491
70
root 0.9676007269592309 18.959325009222706 7.522390161380844 6.767050804392147 4.867842368534186 -0.7139908097252723
lfemur -18.087645423945837 4.587043512078863 -16.917084290407416
ltibia 36.48881395392482
lfoot -9.408063025013615 3.68979780856232
ltoes -11.066216261302388
rfemur -11.290873216146014 -2.6204274183369125 19.104149527741328
rtibia 26.41123704436678
rfoot -11.276650694484989 -2.193108161318194
rtoes 7.8616430393138055
lowerback 0.15442174697127475 -0.7971803012400105 0.9493941129140486
upperback 1.0567634531753864 -1.1627091585987361 2.855925940924375
thorax -0.21838785429437318 -0.615342672313509 2.063607367222681
lowerneck -10.65130912796196 -3.362123829117177 -2.7590231132268204
upperneck 15.552618137993168 -4.833037376742192 2.9649687336015074
head 6.999113476868334 -2.2199263134058076 0.807804136779769
lclavicle 1.8689442767730557e-16 -2.3536655087936797e-15
lhumerus -32.43947195427461 1.2553676209112075 80.94786981669859
lradius 19.784114888786416
lwrist 13.231889864089663
lhand -27.139206948297932 -9.991271994409466
lfingers 7.12502
lthumb -0.35816348941074416 18.911040427355015
rclavicle 1.8609003773422466e-16 -2.3550087243042805e-15
rhumerus -25.791415929546332 -12.896489762670093 -76.77481039855844
rradius 30.339796666933044
rwrist 34.11945410324297
rhand -24.169643065450707 -26.759052120304382
rfingers 7.12502
rthumb 2.613615025175837 -56.22494953655935
71
root 0.9154593110382685 19.07944753275561 7.831455722336888 7.900146398513606 6.389588334979447 -1.300923681338366
lfemur -15.847211963699898 4.386217524096225 -16.647485105640445
ltibia 32.64730042597364
lfoot -8.25969660717562 3.204994947004373
ltoes -9.703977704940018
rfemur -10.607822943667548 -2.9817284451177564 19.656889384263756
rtibia 24.57134286637162
rfoot -10.966003832520691 -2.808470441173435
rtoes 8.96343131818351
lowerback 0.3895467237029182 -0.7788589649614636 0.9958718592919469
upperback 0.8295446669919639 -1.084765953629657 2.9629302501734487
thorax -0.2108581101764308 -0.5618066644581636 1.9920168220330434
lowerneck -10.586610770739005 -4.120946020162397 -2.858389960729793
upperneck 15.720497948237135 -5.858518696899397 3.3632420068816447
head 7.033906235352455 -2.6991082791544265 0.8764920150552329
lclavicle 1.8745557188809164e-16 -2.3527341054654957e-15
lhumerus -34.62782595085772 2.0106329256163504 79.55777424143618
lradius 18.2489939371253
lwrist 10.576628313686602
lhand -26.893223686902825 -9.413220595086154
lfingers 7.12502
lthumb 0.08286947740443873 19.431532229384544
rclavicle 1.8557655925741065e-16 -2.3558228761908064e-15
rhumerus -26.76355911899803 -13.615621615926944 -75.47508686181529
rradius 29.2993184232711
rwrist 34.81088991065179
rhand -24.271277689430324 -26.924753845336447
rfingers 7.12502
rthumb 2.67780242041521 -56.31509604807237
